<svg width="695" height="930" viewBox="0 0 695 930" fill="none" xmlns="http://www.w3.org/2000/svg">
<path d="M95 879.5H72.5V922C73.8333 924.833 78 930.3 84 929.5C92.4 928.7 94.8333 922.833 95 920V879.5Z" fill="black"/>
<path d="M621.5 879.5H599V922C600.333 924.833 604.5 930.3 610.5 929.5C618.9 928.7 621.333 922.833 621.5 920V879.5Z" fill="black"/>
<path d="M691 822H2.50002C-1.89998 824 0.666691 828.167 2.50002 830C38 858 52 860.5 63.5 863.5C75 866.5 290.5 870.5 340 870.5C389.5 870.5 619 864.5 634.5 863.5C646.9 862.7 658.667 856.5 663 853.5C671.167 847.333 688.5 834 692.5 830C696.5 826 693.167 823 691 822Z" fill="black"/>
<path d="M191 120.5C185 123.7 160.5 142.167 149 151C147.333 115 144.2 42.3 145 39.5C146 36 157 -0.999995 191 1.00001C218.2 2.60001 231 24.3333 234 35L243.5 101.5C238.5 101 198.5 116.5 191 120.5Z" fill="black"/>
<path d="M543 805L569.5 744.5L579.5 747L591 748L565 805H543Z" fill="black"/>
<path d="M150 805.5L123.5 745L113.5 747.5L102 748.5L128 805.5H150Z" fill="black"/>
<path d="M241 376L166.5 350L191 474C197.667 491 220.9 523 260.5 515C300.1 507 316 484.333 319 474L334.5 387L241 376Z" fill="black"/>
<path d="M445 378C439.8 378.8 384.167 384.667 357 387.5C362.333 458.167 374.5 606.7 380.5 635.5C388 671.5 420.5 679 445 679C483.5 671 494.5 641.667 495 629.5L520.5 352C497.5 360.333 450.2 377.2 445 378Z" fill="black"/>
<path d="M108.5 399L23.5 352C21.6667 357.167 17 370.4 13 382C8.99999 393.6 11.3333 417.167 13 427.5L74.5 715.5C80.6667 724 97.5 738.8 115.5 730C133.5 721.2 138.667 704.667 139 697.5C127.167 616.667 102.7 452 99.5 440C96.3 428 104.167 407.667 108.5 399Z" fill="black"/>
<path d="M586.5 399L671.5 352C673.333 357.167 678 370.4 682 382C686 393.6 683.667 417.167 682 427.5L620.5 715.5C614.333 724 597.5 738.8 579.5 730C561.5 721.2 556.333 704.667 556 697.5C567.833 616.667 592.3 452 595.5 440C598.7 428 590.833 407.667 586.5 399Z" fill="black"/>
<path d="M459 246.5C462.2 178.1 422 128.667 401.5 112.5C449.5 112.5 492.5 124 562 183.5C617.6 231.1 639.167 262 643 271.5L665.5 336.5L576.5 386C567.667 371.167 549.1 339.9 545.5 333.5C541.9 327.1 536 328.833 533.5 330.5L468.5 355.5C457.3 361.5 422.5 364.667 406.5 365.5C422.667 354.333 455.8 314.9 459 246.5Z" fill="black"/>
<path d="M234.5 246.5C231.3 178.1 271.5 128.667 292 112.5C244 112.5 201 124 131.5 183.5C75.9 231.1 54.3333 262 50.5 271.5L28 336.5L117 386C125.833 371.167 144.4 339.9 148 333.5C151.6 327.1 157.5 328.833 160 330.5L225 355.5C236.2 361.5 271 364.667 287 365.5C270.833 354.333 237.7 314.9 234.5 246.5Z" fill="black"/>
<ellipse cx="344.5" cy="237.5" rx="97.5" ry="134.5" fill="black"/>
</svg>
